# xmcd
#
# Track frame offsets: 
#        150
#        26755
#        40293
#        72477
#        84061
#        139999
#        168896
#        179709
#
# Disc length: 2970 seconds
#
# Revision: 1
# Processed by: cddbd v1.5.2PL0 Copyright (c) Steve Scherf et al.
# Submitted via: ExactAudioCopy v0.99pb5
#
DISCID=6b0b9808
DTITLE=Kimmo Pohjoinen and Eric Echampard - Uumen
DYEAR=2005
DGENRE=Alternative
TTITLE0=Fil Fragile
TTITLE1=Vaste
TTITLE2=Uumen
TTITLE3=Kuuma
TTITLE4=Utopia
TTITLE5=Onde Blonde
TTITLE6=Dada
TTITLE7=Anemia
EXTD=www.kimmopohjonen.com
EXTT0=
EXTT1=
EXTT2=
EXTT3=
EXTT4=
EXTT5=
EXTT6=
EXTT7=
PLAYORDER=
